<svg width="1em" height="1em" viewBox="0 0 24 24" fill="none" xmlns="http://www.w3.org/2000/svg" data-testid="eye-yes"
  class="css-pyu9k9">
  <path fill-rule="evenodd" clip-rule="evenodd"
    d="M9.042 12a3 3 0 1 1 6 0 3 3 0 0 1-6 0Zm2 0c0 .551.449 1 1 1 .55 0 1-.449 1-1 0-.551-.45-1-1-1-.551 0-1 .449-1 1Z"
    fill="currentColor"></path>
  <path fill-rule="evenodd" clip-rule="evenodd"
    d="M2 12c1.29-4.047 5.295-7 10.042-7s8.75 2.953 10.042 7c-1.291 4.047-5.295 7-10.042 7S3.29 16.047 2 12Zm2.13 0c1.249 2.974 4.408 5 7.912 5 3.504 0 6.663-2.026 7.912-5-1.25-2.974-4.408-5-7.912-5-3.504 0-6.663 2.026-7.912 5Z"
    fill="currentColor"></path>
</svg>