<svg width="1em" height="1em" viewBox="0 0 24 24" xmlns="http://www.w3.org/2000/svg" data-testid="eye-not"
  class="css-pyu9k9">
  <path
    d="m3.498 2 3.984 3.985A11.008 11.008 0 0 1 12.042 5c4.747 0 8.75 2.953 10.042 7-.635 1.989-1.928 3.708-3.641 4.946l4.59 4.59v1.414H21.62L2.084 3.415V2h1.414zm1.406 5.637L6.327 9.06a7.797 7.797 0 0 0-2.197 2.939c1.249 2.974 4.408 5 7.912 5 .68 0 1.339-.097 1.982-.242l1.635 1.635a11.073 11.073 0 0 1-3.617.607C7.295 19 3.29 16.047 2 12c.54-1.692 1.559-3.19 2.904-4.363zM12.042 7c-1.051 0-2.06.203-3.004.54l1.742 1.743c.383-.18.81-.283 1.262-.283a3 3 0 0 1 3 3c0 .452-.103.879-.283 1.262l2.228 2.228c1.313-.866 2.367-2.06 2.967-3.49-1.25-2.974-4.408-5-7.912-5zm-2.98 4.796 3.183 3.183c-.068.005-.134.021-.204.021a3 3 0 0 1-3-3c0-.07.016-.136.021-.204z"
    fill="currentColor" fill-rule="evenodd"></path>
</svg>