<svg xmlns="http://www.w3.org/2000/svg" width="1em" height="1em" viewBox="0 0 24 24" class="css-1cqfdwu">
  <g fill="none">
    <path fill="#4285F4"
      d="M23.978 12.281c0-.813-.068-1.63-.211-2.43H12.25v4.606h6.595a5.531 5.531 0 0 1-2.44 3.635v2.99h3.933c2.31-2.084 3.639-5.161 3.639-8.8z">
    </path>
    <path fill="#34A853"
      d="M12.251 23.97c3.293 0 6.07-1.06 8.093-2.889l-3.934-2.989c-1.095.73-2.508 1.143-4.154 1.143-3.185 0-5.886-2.105-6.855-4.936h-4.06v3.081c2.073 4.04 6.294 6.59 10.91 6.59z">
    </path>
    <path fill="#FBBC04" d="M5.397 14.299a7.029 7.029 0 0 1 0-4.58V6.637H1.34a11.758 11.758 0 0 0 0 10.743l4.057-3.08z">
    </path>
    <path fill="#EA4335"
      d="M12.251 4.778a6.71 6.71 0 0 1 4.684 1.793l3.485-3.415A11.868 11.868 0 0 0 12.251.044c-4.616 0-8.837 2.55-10.91 6.593L5.397 9.72c.964-2.835 3.67-4.941 6.854-4.941z">
    </path>
  </g>
</svg>